<?xml version="1.0" encoding="utf-8"?>
<!-- Generator: Adobe Illustrator 24.0.0, SVG Export Plug-In . SVG Version: 6.00 Build 0)  -->
<svg version="1.1" id="Layer_1" xmlns="http://www.w3.org/2000/svg" xmlns:xlink="http://www.w3.org/1999/xlink" x="0px" y="0px"
	 viewBox="0 0 1200 800" style="enable-background:new 0 0 1200 800;" xml:space="preserve">
<style type="text/css">
	.st0{clip-path:url(#SVGID_2_);}
	.st1{clip-path:url(#SVGID_4_);}
	.st2{clip-path:url(#SVGID_6_);fill:none;stroke:#000000;stroke-width:2;}
	.st3{opacity:0.3;clip-path:url(#SVGID_8_);}
	.st4{clip-path:url(#SVGID_10_);fill:#2A2D6B;}
	.st5{filter:url(#Adobe_OpacityMaskFilter);}
	.st6{clip-path:url(#SVGID_12_);}
	.st7{clip-path:url(#SVGID_15_);fill:url(#SVGID_16_);}
	.st8{clip-path:url(#SVGID_12_);mask:url(#SVGID_13_);fill:url(#SVGID_17_);}
	.st9{filter:url(#Adobe_OpacityMaskFilter_1_);}
	.st10{clip-path:url(#SVGID_19_);}
	.st11{clip-path:url(#SVGID_22_);fill:url(#SVGID_23_);}
	.st12{clip-path:url(#SVGID_19_);mask:url(#SVGID_20_);fill:url(#SVGID_24_);}
	.st13{filter:url(#Adobe_OpacityMaskFilter_2_);}
	.st14{clip-path:url(#SVGID_26_);}
	.st15{clip-path:url(#SVGID_29_);fill:url(#SVGID_30_);}
	.st16{clip-path:url(#SVGID_26_);mask:url(#SVGID_27_);fill:url(#SVGID_31_);}
	.st17{filter:url(#Adobe_OpacityMaskFilter_3_);}
	.st18{clip-path:url(#SVGID_33_);}
	.st19{clip-path:url(#SVGID_36_);fill:url(#SVGID_37_);}
	.st20{clip-path:url(#SVGID_33_);mask:url(#SVGID_34_);fill:url(#SVGID_38_);}
	.st21{filter:url(#Adobe_OpacityMaskFilter_4_);}
	.st22{clip-path:url(#SVGID_40_);}
	.st23{clip-path:url(#SVGID_43_);fill:url(#SVGID_44_);}
	.st24{clip-path:url(#SVGID_40_);mask:url(#SVGID_41_);fill:url(#SVGID_45_);}
	.st25{clip-path:url(#SVGID_47_);fill:none;stroke:#000000;}
	.st26{opacity:0.7;clip-path:url(#SVGID_47_);}
	.st27{clip-path:url(#SVGID_49_);fill:#2A2D6B;}
	.st28{clip-path:url(#SVGID_49_);fill:none;stroke:#000000;}
	.st29{clip-path:url(#SVGID_51_);}
	.st30{clip-path:url(#SVGID_53_);fill:none;stroke:#000000;stroke-width:2;}
	.st31{clip-path:url(#SVGID_55_);}
	.st32{clip-path:url(#SVGID_59_);}
	.st33{clip-path:url(#SVGID_63_);}
	.st34{fill:#2E4395;}
	.st35{clip-path:url(#SVGID_67_);}
	.st36{clip-path:url(#SVGID_69_);fill:none;stroke:#000000;stroke-width:2;}
	.st37{fill:#355FAA;}
	.st38{clip-path:url(#SVGID_71_);}
	.st39{clip-path:url(#SVGID_75_);}
	.st40{clip-path:url(#SVGID_79_);}
	.st41{clip-path:url(#SVGID_81_);fill:none;stroke:#000000;stroke-width:2;}
	.st42{clip-path:url(#SVGID_83_);}
</style>
<g>
	<g>
		<defs>
			<rect id="SVGID_1_" width="1200" height="800"/>
		</defs>
		<clipPath id="SVGID_2_">
			<use xlink:href="#SVGID_1_"  style="overflow:visible;"/>
		</clipPath>
		<g class="st0">
			<defs>
				<rect id="SVGID_3_" width="1200" height="800"/>
			</defs>
			<clipPath id="SVGID_4_">
				<use xlink:href="#SVGID_3_"  style="overflow:visible;"/>
			</clipPath>
			<g class="st1">
				<path d="M1055.34,745.08h2.51l-1.18,7.5h-3.13l-0.55-2.76h-0.14l-0.54,2.76h-3.13l-1.18-7.5h2.51l0.56,4.19h0.07l0.86-4.19h1.84
					l0.85,4.19h0.07L1055.34,745.08z"/>
				<path d="M1060.85,748.89v3.7h-2.4v-7.8l2.4-0.18v2.2c0.51-0.26,1.08-0.4,1.7-0.4s1.1,0.12,1.42,0.37
					c0.32,0.24,0.48,0.58,0.48,1.01v4.8h-2.4v-4.2h-0.37c-0.29,0-0.5,0.03-0.63,0.09C1060.92,748.53,1060.85,748.67,1060.85,748.89z
					"/>
				<path d="M1068.44,746.4c1.92,0,2.88,0.66,2.88,1.98v4.2h-1.2l-0.68-0.68c-0.23,0.27-0.55,0.48-0.95,0.64
					c-0.4,0.15-0.78,0.23-1.13,0.23c-0.36,0-0.64-0.03-0.86-0.08c-0.22-0.06-0.43-0.15-0.64-0.29c-0.46-0.29-0.68-0.82-0.68-1.61
					c0-1.44,1.09-2.16,3.26-2.16h0.48v-0.43c-0.26-0.02-0.47-0.02-0.64-0.02c-0.9,0-1.68,0.11-2.33,0.32l-0.29-1.72
					C1066.46,746.53,1067.39,746.4,1068.44,746.4z M1067.6,750.52v0.49h0.49c0.35,0,0.58-0.04,0.68-0.12
					c0.1-0.08,0.15-0.18,0.15-0.31v-0.56h-0.49c-0.29,0-0.5,0.03-0.63,0.09C1067.66,750.17,1067.6,750.3,1067.6,750.52z"/>
				<path d="M1072.04,748.13v-1.55h0.6v-0.96l2.4-0.6v1.56h0.83v1.55h-0.83v2.74c0.21,0.04,0.44,0.07,0.71,0.08l-0.11,1.76
					c-1.1,0-1.81-0.06-2.14-0.18c-0.41-0.14-0.66-0.34-0.77-0.58c-0.06-0.14-0.1-0.31-0.1-0.5v-3.32H1072.04z"/>
				<path d="M1079.26,745.97v0.14c-0.02,0.35-0.12,0.7-0.3,1.04c-0.06,0.1-0.09,0.16-0.1,0.18l-0.82,1.63l-1.07-0.35l0.4-1.73
					c-0.28-0.05-0.47-0.14-0.57-0.28c-0.1-0.14-0.15-0.4-0.15-0.78s0.09-0.67,0.26-0.86c0.18-0.19,0.52-0.29,1.04-0.29
					s0.86,0.1,1.04,0.29C1079.17,745.17,1079.26,745.5,1079.26,745.97z"/>
				<path d="M1080.63,746.82c0.52-0.28,1.22-0.42,2.12-0.42c0.9,0,1.72,0.12,2.47,0.37l-0.28,1.63c-0.62-0.18-1.25-0.26-1.87-0.26
					c-0.19,0-0.46,0.02-0.82,0.05v0.38c1.3,0,2.18,0.19,2.64,0.58c0.23,0.19,0.4,0.4,0.49,0.63c0.1,0.23,0.14,0.5,0.14,0.83
					c0,0.32-0.04,0.61-0.11,0.87c-0.08,0.26-0.19,0.46-0.35,0.61c-0.16,0.15-0.32,0.28-0.49,0.37s-0.39,0.16-0.66,0.2
					c-0.42,0.06-0.92,0.1-1.48,0.1c-0.99,0-1.89-0.12-2.69-0.35l0.3-1.7c0.67,0.21,1.4,0.31,2.18,0.31c0.36,0,0.69-0.02,0.98-0.05
					v-0.38c-1.28,0-2.16-0.17-2.65-0.5c-0.48-0.34-0.73-0.89-0.73-1.67S1080.12,747.1,1080.63,746.82z"/>
				<path d="M1092.58,750.78l0.14,1.73c-0.42,0.17-0.95,0.25-1.61,0.25c-1.12,0-1.93-0.26-2.43-0.79c-0.5-0.52-0.75-1.32-0.75-2.39
					s0.25-1.87,0.75-2.39c0.5-0.52,1.31-0.79,2.43-0.79c0.7,0,1.23,0.08,1.61,0.25l-0.29,1.63c-0.42-0.09-0.76-0.13-1.01-0.13
					c-0.61,0-0.91,0.21-0.91,0.64v2.15c0.23,0.05,0.53,0.07,0.89,0.07S1092.16,750.94,1092.58,750.78z"/>
				<path d="M1096.53,746.4c1.92,0,2.88,0.66,2.88,1.98v4.2h-1.2l-0.68-0.68c-0.23,0.27-0.55,0.48-0.95,0.64
					c-0.4,0.15-0.78,0.23-1.13,0.23c-0.36,0-0.64-0.03-0.86-0.08c-0.22-0.06-0.43-0.15-0.64-0.29c-0.46-0.29-0.68-0.82-0.68-1.61
					c0-1.44,1.09-2.16,3.26-2.16h0.48v-0.43c-0.26-0.02-0.47-0.02-0.64-0.02c-0.9,0-1.68,0.11-2.33,0.32l-0.29-1.72
					C1094.55,746.53,1095.48,746.4,1096.53,746.4z M1095.69,750.52v0.49h0.49c0.35,0,0.58-0.04,0.68-0.12
					c0.1-0.08,0.15-0.18,0.15-0.31v-0.56h-0.49c-0.29,0-0.5,0.03-0.63,0.09C1095.75,750.17,1095.69,750.3,1095.69,750.52z"/>
				<path d="M1100.13,748.13v-1.55h0.6v-0.96l2.4-0.6v1.56h0.83v1.55h-0.83v2.74c0.21,0.04,0.44,0.07,0.71,0.08l-0.11,1.76
					c-1.1,0-1.81-0.06-2.14-0.18c-0.41-0.14-0.66-0.34-0.77-0.58c-0.06-0.14-0.1-0.31-0.1-0.5v-3.32H1100.13z"/>
				<path d="M1108.07,748.96l-0.2,1.52h-2.04l-0.18-2.26c0-0.14,0.05-0.26,0.14-0.34s0.31-0.18,0.64-0.29l1.28-0.44v-0.41
					c-0.21-0.02-0.45-0.02-0.71-0.02c-0.27,0-0.62,0.03-1.06,0.08c-0.44,0.05-0.74,0.11-0.91,0.16l-0.29-1.72
					c0.87-0.22,1.7-0.34,2.5-0.34c1.17,0,1.94,0.16,2.33,0.48c0.37,0.3,0.55,0.76,0.55,1.38s-0.15,1.08-0.46,1.37
					C1109.34,748.43,1108.81,748.7,1108.07,748.96z M1105.79,752.46c-0.18-0.14-0.27-0.38-0.27-0.72s0.09-0.59,0.28-0.73
					c0.18-0.14,0.54-0.22,1.07-0.22c0.53,0,0.88,0.07,1.06,0.22c0.18,0.14,0.27,0.39,0.27,0.73s-0.09,0.58-0.27,0.72
					s-0.54,0.2-1.07,0.2S1105.96,752.6,1105.79,752.46z"/>
				<path d="M1113.29,747.15l-0.31-1.79c1.01-0.3,2.01-0.46,3.01-0.46c0.4,0,0.73,0.01,1,0.04c0.27,0.02,0.55,0.08,0.83,0.18
					c0.29,0.1,0.52,0.23,0.68,0.4c0.38,0.38,0.58,0.97,0.58,1.76s-0.22,1.38-0.67,1.75c-0.45,0.38-1.39,0.81-2.83,1.3v0.34h3.38
					v1.92h-6.16v-1.5c0-0.45,0.08-0.88,0.25-1.28c0.1-0.23,0.36-0.51,0.76-0.84c0.22-0.18,0.51-0.36,0.87-0.53s0.71-0.33,1.03-0.47
					s0.59-0.27,0.79-0.37v-0.65c-0.36-0.04-0.69-0.06-1-0.06C1114.77,746.88,1114.03,746.97,1113.29,747.15z"/>
			</g>
			<g class="st1">
				<defs>
					<rect id="SVGID_5_" width="1200" height="800"/>
				</defs>
				<clipPath id="SVGID_6_">
					<use xlink:href="#SVGID_5_"  style="overflow:visible;"/>
				</clipPath>
				<line class="st2" x1="1042" y1="756" x2="1200" y2="756"/>
			</g>
			<g class="st1">
				<defs>
					<rect id="SVGID_7_" x="600.5" y="0.5" width="599" height="799"/>
				</defs>
				<clipPath id="SVGID_8_">
					<use xlink:href="#SVGID_7_"  style="overflow:visible;"/>
				</clipPath>
				<g class="st3">
					<g>
						<defs>
							<rect id="SVGID_9_" x="500.5" y="0.5" width="799" height="799"/>
						</defs>
						<clipPath id="SVGID_10_">
							<use xlink:href="#SVGID_9_"  style="overflow:visible;"/>
						</clipPath>
						<rect x="500.5" y="0.5" class="st4" width="799" height="799"/>
					</g>
				</g>
			</g>
			<g class="st1">
				<defs>
					<path id="SVGID_11_" d="M855.27,323.97v152.05c4.57,2.36,9.37,4.31,14.37,5.82V318.16
						C864.64,319.67,859.84,321.62,855.27,323.97"/>
				</defs>
				<clipPath id="SVGID_12_">
					<use xlink:href="#SVGID_11_"  style="overflow:visible;"/>
				</clipPath>
				<defs>
					<filter id="Adobe_OpacityMaskFilter" filterUnits="userSpaceOnUse" x="784.39" y="311.93" width="156.13" height="176.13">
						<feColorMatrix  type="matrix" values="1 0 0 0 0  0 1 0 0 0  0 0 1 0 0  0 0 0 1 0"/>
					</filter>
				</defs>
				<mask maskUnits="userSpaceOnUse" x="784.39" y="311.93" width="156.13" height="176.13" id="SVGID_13_">
					<g class="st5">
						<g>
							<defs>
								
									<rect id="SVGID_14_" x="815.31" y="325.53" transform="matrix(0.866 -0.5 0.5 0.866 -84.4533 484.813)" width="94.29" height="148.94"/>
							</defs>
							<clipPath id="SVGID_15_" class="st6">
								<use xlink:href="#SVGID_14_"  style="overflow:visible;"/>
							</clipPath>
							
								<linearGradient id="SVGID_16_" gradientUnits="userSpaceOnUse" x1="3672.7168" y1="822.0364" x2="3673.7168" y2="822.0364" gradientTransform="matrix(-71.9517 -124.624 -124.624 71.9517 367603.4063 399026.3125)">
								<stop  offset="0" style="stop-color:#666666"/>
								<stop  offset="1" style="stop-color:#FFFFFF"/>
							</linearGradient>
							<polygon class="st7" points="823.42,555.67 708.13,355.97 901.49,244.33 1016.78,444.03 							"/>
						</g>
					</g>
				</mask>
				
					<linearGradient id="SVGID_17_" gradientUnits="userSpaceOnUse" x1="3672.7168" y1="822.0364" x2="3673.7168" y2="822.0364" gradientTransform="matrix(-71.9517 -124.624 -124.624 71.9517 367603.4063 399026.2813)">
					<stop  offset="0" style="stop-color:#000000"/>
					<stop  offset="1" style="stop-color:#262451"/>
				</linearGradient>
				<polygon class="st8" points="858.86,488.06 784.39,359.08 866.05,311.93 940.52,440.92 				"/>
			</g>
			<g class="st1">
				<defs>
					<path id="SVGID_18_" d="M827.29,347.04v105.92c5.74,7.27,12.64,13.58,20.42,18.66V328.38v0
						C839.93,333.46,833.03,339.77,827.29,347.04"/>
				</defs>
				<clipPath id="SVGID_19_">
					<use xlink:href="#SVGID_18_"  style="overflow:visible;"/>
				</clipPath>
				<defs>
					<filter id="Adobe_OpacityMaskFilter_1_" filterUnits="userSpaceOnUse" x="765.27" y="319.54" width="144.46" height="160.91">
						<feColorMatrix  type="matrix" values="1 0 0 0 0  0 1 0 0 0  0 0 1 0 0  0 0 0 1 0"/>
					</filter>
				</defs>
				<mask maskUnits="userSpaceOnUse" x="765.27" y="319.54" width="144.46" height="160.91" id="SVGID_20_">
					<g class="st9">
						<g>
							<defs>
								
									<rect id="SVGID_21_" x="792.85" y="332.87" transform="matrix(0.866 -0.5 0.5 0.866 -87.7963 472.3385)" width="89.3" height="134.25"/>
							</defs>
							<clipPath id="SVGID_22_" class="st10">
								<use xlink:href="#SVGID_21_"  style="overflow:visible;"/>
							</clipPath>
							
								<linearGradient id="SVGID_23_" gradientUnits="userSpaceOnUse" x1="3674.7527" y1="825.5902" x2="3675.7527" y2="825.5902" gradientTransform="matrix(-62.0221 -107.4255 -107.4255 62.0221 317476.5625 344015.4688)">
								<stop  offset="0" style="stop-color:#666666"/>
								<stop  offset="1" style="stop-color:#FFFFFF"/>
							</linearGradient>
							<polygon class="st11" points="801.38,543.01 695.59,359.77 873.61,256.99 979.41,440.23 							"/>
						</g>
					</g>
				</mask>
				
					<linearGradient id="SVGID_24_" gradientUnits="userSpaceOnUse" x1="3674.7527" y1="825.5902" x2="3675.7527" y2="825.5902" gradientTransform="matrix(-62.0222 -107.4255 -107.4255 62.0222 317476.5938 344015.4688)">
					<stop  offset="0" style="stop-color:#000000"/>
					<stop  offset="1" style="stop-color:#262451"/>
				</linearGradient>
				<polygon class="st12" points="832.4,480.46 765.27,364.19 842.6,319.54 909.73,435.81 				"/>
			</g>
			<g class="st1">
				<defs>
					<path id="SVGID_25_" d="M876.03,316.49v167.01c2.62,0.57,5.28,1.03,7.99,1.36V315.14
						C881.32,315.46,878.65,315.92,876.03,316.49"/>
				</defs>
				<clipPath id="SVGID_26_">
					<use xlink:href="#SVGID_25_"  style="overflow:visible;"/>
				</clipPath>
				<defs>
					<filter id="Adobe_OpacityMaskFilter_2_" filterUnits="userSpaceOnUse" x="802.54" y="311.68" width="154.98" height="176.65">
						<feColorMatrix  type="matrix" values="1 0 0 0 0  0 1 0 0 0  0 0 1 0 0  0 0 0 1 0"/>
					</filter>
				</defs>
				<mask maskUnits="userSpaceOnUse" x="802.54" y="311.68" width="154.98" height="176.65" id="SVGID_27_">
					<g class="st13">
						<g>
							<defs>
								
									<rect id="SVGID_28_" x="834.13" y="324.51" transform="matrix(0.866 -0.5 0.5 0.866 -82.0993 493.5996)" width="91.78" height="150.98"/>
							</defs>
							<clipPath id="SVGID_29_" class="st14">
								<use xlink:href="#SVGID_28_"  style="overflow:visible;"/>
							</clipPath>
							
								<linearGradient id="SVGID_30_" gradientUnits="userSpaceOnUse" x1="3672.2156" y1="821.1605" x2="3673.2156" y2="821.1605" gradientTransform="matrix(-74.9038 -129.7371 -129.7371 74.9038 382515.5313 415380.0625)">
								<stop  offset="0" style="stop-color:#666666"/>
								<stop  offset="1" style="stop-color:#FFFFFF"/>
							</linearGradient>
							<polygon class="st15" points="841.28,555.43 726.05,355.84 918.77,244.57 1034,444.16 							"/>
						</g>
					</g>
				</mask>
				
					<linearGradient id="SVGID_31_" gradientUnits="userSpaceOnUse" x1="3672.2156" y1="821.1605" x2="3673.2156" y2="821.1605" gradientTransform="matrix(-74.9038 -129.7371 -129.7371 74.9038 382515.5313 415380.0625)">
					<stop  offset="0" style="stop-color:#000000"/>
					<stop  offset="1" style="stop-color:#262451"/>
				</linearGradient>
				<polygon class="st16" points="878.03,488.32 802.54,357.57 882.02,311.68 957.51,442.43 				"/>
			</g>
			<g class="st1">
				<defs>
					<path id="SVGID_32_" d="M891.21,314.57v170.86c1.06,0.04,2.13,0.07,3.2,0.07c0.27,0,0.53-0.01,0.8-0.01V314.52
						c-0.27,0-0.53-0.01-0.8-0.01C893.34,314.51,892.27,314.53,891.21,314.57"/>
				</defs>
				<clipPath id="SVGID_33_">
					<use xlink:href="#SVGID_32_"  style="overflow:visible;"/>
				</clipPath>
				<defs>
					<filter id="Adobe_OpacityMaskFilter_3_" filterUnits="userSpaceOnUse" x="817.17" y="312.78" width="152.07" height="174.45">
						<feColorMatrix  type="matrix" values="1 0 0 0 0  0 1 0 0 0  0 0 1 0 0  0 0 0 1 0"/>
					</filter>
				</defs>
				<mask maskUnits="userSpaceOnUse" x="817.17" y="312.78" width="152.07" height="174.45" id="SVGID_34_">
					<g class="st17">
						<g>
							<defs>
								
									<rect id="SVGID_35_" x="848.73" y="324.96" transform="matrix(0.866 -0.5 0.5 0.866 -80.3326 500.1963)" width="88.95" height="150.08"/>
							</defs>
							<clipPath id="SVGID_36_" class="st18">
								<use xlink:href="#SVGID_35_"  style="overflow:visible;"/>
							</clipPath>
							
								<linearGradient id="SVGID_37_" gradientUnits="userSpaceOnUse" x1="3672.1995" y1="821.1302" x2="3673.1995" y2="821.1302" gradientTransform="matrix(-75.0033 -129.9096 -129.9096 75.0033 383030.5938 415931.3438)">
								<stop  offset="0" style="stop-color:#666666"/>
								<stop  offset="1" style="stop-color:#FFFFFF"/>
							</linearGradient>
							<polygon class="st19" points="855.19,553.07 741.63,356.39 931.23,246.93 1044.78,443.61 							"/>
						</g>
					</g>
				</mask>
				
					<linearGradient id="SVGID_38_" gradientUnits="userSpaceOnUse" x1="3672.1995" y1="821.1302" x2="3673.2" y2="821.1302" gradientTransform="matrix(-75.0033 -129.9096 -129.9096 75.0033 383030.5938 415931.3438)">
					<stop  offset="0" style="stop-color:#000000"/>
					<stop  offset="1" style="stop-color:#262451"/>
				</linearGradient>
				<polygon class="st20" points="892.21,487.22 817.17,357.25 894.21,312.78 969.25,442.75 				"/>
			</g>
			<g class="st1">
				<defs>
					<path id="SVGID_39_" d="M892.01,270.6c-2.42,0.06-4.81,0.18-7.19,0.37c-2.69,0.21-5.35,0.51-7.99,0.89
						c-2.15,0.31-4.28,0.66-6.39,1.07c-4.89,0.95-9.69,2.17-14.37,3.65c-2.56,0.81-5.08,1.7-7.56,2.66
						c-7.13,2.76-13.96,6.13-20.42,10.05c-37.36,22.7-62.32,63.79-62.32,110.7c0,46.91,24.96,88,62.32,110.7
						c6.46,3.92,13.28,7.29,20.42,10.05c2.48,0.96,5.01,1.85,7.56,2.66c4.68,1.49,9.48,2.71,14.37,3.65
						c2.11,0.41,4.24,0.77,6.39,1.07c2.64,0.38,5.3,0.68,7.99,0.89c2.38,0.19,4.78,0.32,7.19,0.37c1.06,0.03,2.13,0.04,3.2,0.04
						c0.27,0,0.53-0.01,0.8-0.01c40.32-0.24,76.27-18.92,99.84-48.04c2.91-3.59,5.63-7.35,8.15-11.24c2.35-3.64,4.52-7.4,6.51-11.27
						l24-41.56h-11.02h-44.55c-1.57,7.63-4.15,14.89-7.61,21.63c-14.05,27.42-42.48,46.24-75.33,46.54c-0.27,0-0.53,0.01-0.8,0.01
						c-1.07,0-2.14-0.03-3.2-0.07c-2.42-0.09-4.82-0.28-7.19-0.57c-2.7-0.33-5.37-0.78-7.99-1.36c-2.16-0.47-4.29-1.03-6.39-1.66
						c-5-1.51-9.8-3.46-14.37-5.82c-2.6-1.34-5.12-2.82-7.56-4.41c-7.78-5.08-14.68-11.39-20.42-18.66
						C816.58,438.4,809.71,420,809.71,400c0-20,6.87-38.4,18.38-52.96c5.74-7.27,12.64-13.58,20.42-18.66
						c2.44-1.59,4.96-3.07,7.56-4.41c4.57-2.36,9.37-4.31,14.37-5.82c2.1-0.63,4.23-1.19,6.39-1.66c2.62-0.57,5.29-1.03,7.99-1.36
						c2.37-0.29,4.77-0.48,7.19-0.57c1.06-0.04,2.13-0.07,3.2-0.07c0.27,0,0.53,0.01,0.8,0.01c31.28,0.29,58.54,17.36,73.21,42.66
						c3.73,6.42,6.63,13.38,8.59,20.72h44.15h0.8h9.35l-19.72-34.15c0,0-11.72-19.65-19.13-28.23
						c-23.57-27.34-58.39-44.71-97.26-44.94c-0.27,0-0.53-0.01-0.8-0.01C894.14,270.56,893.07,270.58,892.01,270.6"/>
				</defs>
				<clipPath id="SVGID_40_">
					<use xlink:href="#SVGID_39_"  style="overflow:visible;"/>
				</clipPath>
				<defs>
					<filter id="Adobe_OpacityMaskFilter_4_" filterUnits="userSpaceOnUse" x="653.67" y="154.2" width="492.93" height="491.61">
						<feColorMatrix  type="matrix" values="1 0 0 0 0  0 1 0 0 0  0 0 1 0 0  0 0 0 1 0"/>
					</filter>
				</defs>
				<mask maskUnits="userSpaceOnUse" x="653.67" y="154.2" width="492.93" height="491.61" id="SVGID_41_">
					<g class="st21">
						<g>
							<defs>
								
									<rect id="SVGID_42_" x="719.05" y="220.72" transform="matrix(0.866 -0.5 0.5 0.866 -79.4043 503.6605)" width="362.17" height="358.56"/>
							</defs>
							<clipPath id="SVGID_43_" class="st22">
								<use xlink:href="#SVGID_42_"  style="overflow:visible;"/>
							</clipPath>
							
								<linearGradient id="SVGID_44_" gradientUnits="userSpaceOnUse" x1="3667.0681" y1="812.2261" x2="3668.0681" y2="812.2261" gradientTransform="matrix(-129.4551 -224.2229 -224.2229 129.4551 657804.0625 717603.75)">
								<stop  offset="0" style="stop-color:#666666"/>
								<stop  offset="1" style="stop-color:#FFFFFF"/>
							</linearGradient>
							<polygon class="st23" points="776.9,859.25 440.8,277.1 1023.37,-59.25 1359.48,522.9 							"/>
						</g>
					</g>
				</mask>
				
					<linearGradient id="SVGID_45_" gradientUnits="userSpaceOnUse" x1="3667.0681" y1="812.2261" x2="3668.0681" y2="812.2261" gradientTransform="matrix(-129.4551 -224.2229 -224.2229 129.4551 657804.125 717603.75)">
					<stop  offset="0" style="stop-color:#000000"/>
					<stop  offset="1" style="stop-color:#262451"/>
				</linearGradient>
				<polygon class="st24" points="832.95,645.8 653.67,335.28 967.32,154.2 1146.6,464.72 				"/>
			</g>
			<g class="st1">
				<defs>
					<rect id="SVGID_46_" width="1200" height="800"/>
				</defs>
				<clipPath id="SVGID_47_">
					<use xlink:href="#SVGID_46_"  style="overflow:visible;"/>
				</clipPath>
				<rect x="600.5" y="0.5" class="st25" width="599" height="799"/>
				<g class="st26">
					<g>
						<defs>
							<rect id="SVGID_48_" x="-9" y="-8" width="618" height="809"/>
						</defs>
						<clipPath id="SVGID_49_">
							<use xlink:href="#SVGID_48_"  style="overflow:visible;"/>
						</clipPath>
						<rect x="0.5" y="0.5" class="st27" width="599" height="799"/>
						<rect x="0.5" y="0.5" class="st28" width="599" height="799"/>
					</g>
				</g>
			</g>
		</g>
	</g>
</g>
</svg>
